<mxfile host="app.diagrams.net" agent="Mozilla/5.0 (Windows NT 10.0; Win64; x64) AppleWebKit/537.36 (KHTML, like Gecko) Chrome/128.0.0.0 Safari/537.36" version="24.7.16">
  <diagram id="9HknMCp9QzEXoNDctaSv" name="Page-1">
    <mxGraphModel dx="2251" dy="1274" grid="0" gridSize="10" guides="1" tooltips="1" connect="1" arrows="1" fold="1" page="0" pageScale="1" pageWidth="827" pageHeight="1169" math="0" shadow="0">
      <root>
        <mxCell id="0" />
        <mxCell id="1" parent="0" />
        <mxCell id="pAVCG8hOWC47g4h9cDp0-1" value="Property Manager" style="swimlane;whiteSpace=wrap;html=1;" vertex="1" parent="1">
          <mxGeometry x="-164" y="-131" width="264" height="540" as="geometry" />
        </mxCell>
        <mxCell id="pAVCG8hOWC47g4h9cDp0-2" style="edgeStyle=none;curved=1;rounded=0;orthogonalLoop=1;jettySize=auto;html=1;fontSize=12;startSize=8;endSize=8;" edge="1" parent="pAVCG8hOWC47g4h9cDp0-1" source="pAVCG8hOWC47g4h9cDp0-3">
          <mxGeometry relative="1" as="geometry">
            <mxPoint x="132" y="113" as="targetPoint" />
          </mxGeometry>
        </mxCell>
        <mxCell id="pAVCG8hOWC47g4h9cDp0-3" value="View Helpdesk Request Detailed Page" style="html=1;align=center;verticalAlign=top;rounded=1;absoluteArcSize=1;arcSize=10;dashed=0;whiteSpace=wrap;" vertex="1" parent="pAVCG8hOWC47g4h9cDp0-1">
          <mxGeometry x="62" y="50" width="140" height="40" as="geometry" />
        </mxCell>
        <mxCell id="pAVCG8hOWC47g4h9cDp0-4" style="edgeStyle=none;curved=1;rounded=0;orthogonalLoop=1;jettySize=auto;html=1;entryX=0.5;entryY=0;entryDx=0;entryDy=0;fontSize=12;startSize=8;endSize=8;" edge="1" parent="pAVCG8hOWC47g4h9cDp0-1">
          <mxGeometry relative="1" as="geometry">
            <mxPoint x="132" y="202" as="targetPoint" />
          </mxGeometry>
        </mxCell>
        <mxCell id="pAVCG8hOWC47g4h9cDp0-5" style="edgeStyle=none;curved=1;rounded=0;orthogonalLoop=1;jettySize=auto;html=1;entryX=0.5;entryY=0;entryDx=0;entryDy=0;fontSize=12;startSize=8;endSize=8;" edge="1" parent="pAVCG8hOWC47g4h9cDp0-1">
          <mxGeometry relative="1" as="geometry">
            <Array as="points">
              <mxPoint x="328" y="155" />
            </Array>
            <mxPoint x="148.94736842105272" y="218.94736842105272" as="sourcePoint" />
          </mxGeometry>
        </mxCell>
        <mxCell id="pAVCG8hOWC47g4h9cDp0-6" value="No" style="edgeLabel;html=1;align=center;verticalAlign=middle;resizable=0;points=[];fontSize=12;" vertex="1" connectable="0" parent="pAVCG8hOWC47g4h9cDp0-5">
          <mxGeometry x="-0.4746" y="24" relative="1" as="geometry">
            <mxPoint as="offset" />
          </mxGeometry>
        </mxCell>
        <mxCell id="pAVCG8hOWC47g4h9cDp0-7" value="" style="edgeStyle=none;curved=1;rounded=0;orthogonalLoop=1;jettySize=auto;html=1;fontSize=12;startSize=8;endSize=8;entryX=0.957;entryY=0.435;entryDx=0;entryDy=0;entryPerimeter=0;" edge="1" parent="pAVCG8hOWC47g4h9cDp0-1" target="pAVCG8hOWC47g4h9cDp0-21">
          <mxGeometry relative="1" as="geometry">
            <mxPoint x="-56" y="323.74" as="targetPoint" />
            <mxPoint x="64" y="353" as="sourcePoint" />
          </mxGeometry>
        </mxCell>
        <mxCell id="pAVCG8hOWC47g4h9cDp0-8" style="edgeStyle=none;curved=1;rounded=0;orthogonalLoop=1;jettySize=auto;html=1;fontSize=12;startSize=8;endSize=8;" edge="1" parent="pAVCG8hOWC47g4h9cDp0-1" source="pAVCG8hOWC47g4h9cDp0-9" target="pAVCG8hOWC47g4h9cDp0-17">
          <mxGeometry relative="1" as="geometry" />
        </mxCell>
        <mxCell id="pAVCG8hOWC47g4h9cDp0-9" value="Enter Form Fields Into Field" style="html=1;align=center;verticalAlign=top;rounded=1;absoluteArcSize=1;arcSize=10;dashed=0;whiteSpace=wrap;" vertex="1" parent="pAVCG8hOWC47g4h9cDp0-1">
          <mxGeometry x="62" y="116" width="140" height="40" as="geometry" />
        </mxCell>
        <mxCell id="pAVCG8hOWC47g4h9cDp0-10" style="edgeStyle=none;curved=1;rounded=0;orthogonalLoop=1;jettySize=auto;html=1;entryX=1;entryY=0.5;entryDx=0;entryDy=0;fontSize=12;startSize=8;endSize=8;" edge="1" parent="pAVCG8hOWC47g4h9cDp0-1" source="pAVCG8hOWC47g4h9cDp0-14" target="pAVCG8hOWC47g4h9cDp0-9">
          <mxGeometry relative="1" as="geometry">
            <Array as="points">
              <mxPoint x="283" y="268" />
            </Array>
          </mxGeometry>
        </mxCell>
        <mxCell id="pAVCG8hOWC47g4h9cDp0-11" value="Yes" style="edgeLabel;html=1;align=center;verticalAlign=middle;resizable=0;points=[];fontSize=12;" vertex="1" connectable="0" parent="pAVCG8hOWC47g4h9cDp0-10">
          <mxGeometry x="-0.368" y="14" relative="1" as="geometry">
            <mxPoint as="offset" />
          </mxGeometry>
        </mxCell>
        <mxCell id="pAVCG8hOWC47g4h9cDp0-12" style="edgeStyle=none;curved=1;rounded=0;orthogonalLoop=1;jettySize=auto;html=1;entryX=0.5;entryY=0;entryDx=0;entryDy=0;fontSize=12;startSize=8;endSize=8;" edge="1" parent="pAVCG8hOWC47g4h9cDp0-1" source="pAVCG8hOWC47g4h9cDp0-14" target="pAVCG8hOWC47g4h9cDp0-18">
          <mxGeometry relative="1" as="geometry" />
        </mxCell>
        <mxCell id="pAVCG8hOWC47g4h9cDp0-13" value="No" style="edgeLabel;html=1;align=center;verticalAlign=middle;resizable=0;points=[];fontSize=12;" vertex="1" connectable="0" parent="pAVCG8hOWC47g4h9cDp0-12">
          <mxGeometry x="-0.0256" y="-3" relative="1" as="geometry">
            <mxPoint as="offset" />
          </mxGeometry>
        </mxCell>
        <mxCell id="pAVCG8hOWC47g4h9cDp0-14" value="" style="rhombus;whiteSpace=wrap;html=1;" vertex="1" parent="pAVCG8hOWC47g4h9cDp0-1">
          <mxGeometry x="114" y="254" width="36" height="36" as="geometry" />
        </mxCell>
        <mxCell id="pAVCG8hOWC47g4h9cDp0-15" style="edgeStyle=none;curved=1;rounded=0;orthogonalLoop=1;jettySize=auto;html=1;entryX=0.5;entryY=0;entryDx=0;entryDy=0;fontSize=12;startSize=8;endSize=8;" edge="1" parent="pAVCG8hOWC47g4h9cDp0-1" source="pAVCG8hOWC47g4h9cDp0-17" target="pAVCG8hOWC47g4h9cDp0-14">
          <mxGeometry relative="1" as="geometry" />
        </mxCell>
        <mxCell id="pAVCG8hOWC47g4h9cDp0-16" value="If Mandatory fields are empty" style="edgeLabel;html=1;align=center;verticalAlign=middle;resizable=0;points=[];fontSize=12;" vertex="1" connectable="0" parent="pAVCG8hOWC47g4h9cDp0-15">
          <mxGeometry x="-0.3105" y="-3" relative="1" as="geometry">
            <mxPoint as="offset" />
          </mxGeometry>
        </mxCell>
        <mxCell id="pAVCG8hOWC47g4h9cDp0-17" value="Submit Form" style="html=1;align=center;verticalAlign=top;rounded=1;absoluteArcSize=1;arcSize=10;dashed=0;whiteSpace=wrap;" vertex="1" parent="pAVCG8hOWC47g4h9cDp0-1">
          <mxGeometry x="62" y="175" width="140" height="40" as="geometry" />
        </mxCell>
        <mxCell id="pAVCG8hOWC47g4h9cDp0-18" value="Disable form input and save changes" style="html=1;align=center;verticalAlign=top;rounded=1;absoluteArcSize=1;arcSize=10;dashed=0;whiteSpace=wrap;" vertex="1" parent="pAVCG8hOWC47g4h9cDp0-1">
          <mxGeometry x="66" y="334" width="140" height="40" as="geometry" />
        </mxCell>
        <mxCell id="pAVCG8hOWC47g4h9cDp0-19" style="edgeStyle=none;curved=1;rounded=0;orthogonalLoop=1;jettySize=auto;html=1;entryX=0;entryY=0.5;entryDx=0;entryDy=0;fontSize=12;startSize=8;endSize=8;" edge="1" parent="1" source="pAVCG8hOWC47g4h9cDp0-20" target="pAVCG8hOWC47g4h9cDp0-3">
          <mxGeometry relative="1" as="geometry" />
        </mxCell>
        <mxCell id="pAVCG8hOWC47g4h9cDp0-20" value="" style="ellipse;fillColor=strokeColor;html=1;" vertex="1" parent="1">
          <mxGeometry x="-315" y="-71" width="19" height="19" as="geometry" />
        </mxCell>
        <mxCell id="pAVCG8hOWC47g4h9cDp0-21" value="" style="ellipse;html=1;shape=endState;fillColor=strokeColor;" vertex="1" parent="1">
          <mxGeometry x="-317" y="214" width="23" height="23" as="geometry" />
        </mxCell>
      </root>
    </mxGraphModel>
  </diagram>
</mxfile>
